<svg xmlns="http://www.w3.org/2000/svg" xmlns:xlink="http://www.w3.org/1999/xlink" viewBox="0 0 759.046 759.046">
  <defs>
    <style>
      .cls-1, .cls-35 {
        fill: none;
      }

      .cls-1 {
        stroke: #fed208;
      }

      .cls-2 {
        fill: #fed208;
      }

      .cls-29, .cls-3 {
        fill: #fff;
      }

      .cls-4 {
        fill: #fed7af;
      }

      .cls-5 {
        fill: #f5cda5;
      }

      .cls-6 {
        fill: #ffd9af;
      }

      .cls-7 {
        fill: #ffe1b9;
      }

      .cls-8 {
        fill: #594b4a;
      }

      .cls-32, .cls-9 {
        fill: #026579;
      }

      .cls-10 {
        fill: #4d603d;
      }

      .cls-11 {
        fill: #fff0b5;
      }

      .cls-12 {
        fill: #00a096;
      }

      .cls-13 {
        fill: #ebdca0;
      }

      .cls-14, .cls-16 {
        fill: #01aaa0;
      }

      .cls-15 {
        fill: #058c83;
      }

      .cls-16, .cls-32 {
        opacity: 0.2;
      }

      .cls-17 {
        fill: #f47821;
      }

      .cls-18 {
        fill: #f78c1f;
      }

      .cls-19 {
        fill: #f5f6f6;
      }

      .cls-20 {
        fill: #088397;
      }

      .cls-21 {
        fill: #068ca0;
      }

      .cls-22 {
        fill: #fcb415;
      }

      .cls-23 {
        fill: #ef4723;
      }

      .cls-24 {
        fill: #989898;
        opacity: 0.36;
      }

      .cls-25 {
        fill: #783518;
      }

      .cls-26 {
        fill: #f3f3f3;
        opacity: 0.85;
      }

      .cls-27 {
        fill: #da4026;
      }

      .cls-28, .cls-31 {
        fill: #ef5423;
      }

      .cls-29 {
        opacity: 0.5;
      }

      .cls-30 {
        fill: #f8961d;
      }

      .cls-31 {
        opacity: 0.3;
      }

      .cls-33 {
        fill: #425533;
      }

      .cls-34 {
        stroke: none;
      }

      .cls-36 {
        filter: url(#Path_944);
      }

      .cls-37 {
        filter: url(#Ellipse_104);
      }

      .cls-38 {
        filter: url(#Ellipse_103);
      }

      .cls-39 {
        filter: url(#Ellipse_102);
      }
    </style>
    <filter id="Ellipse_102" x="0" y="0" width="759.046" height="759.046" filterUnits="userSpaceOnUse">
      <feOffset dy="3" input="SourceAlpha"/>
      <feGaussianBlur stdDeviation="17.5" result="blur"/>
      <feFlood flood-opacity="0.506"/>
      <feComposite operator="in" in2="blur"/>
      <feComposite in="SourceGraphic"/>
    </filter>
    <filter id="Ellipse_103" x="103.582" y="103.582" width="551.882" height="551.882" filterUnits="userSpaceOnUse">
      <feOffset dy="3" input="SourceAlpha"/>
      <feGaussianBlur stdDeviation="17.5" result="blur-2"/>
      <feFlood flood-opacity="0.506"/>
      <feComposite operator="in" in2="blur-2"/>
      <feComposite in="SourceGraphic"/>
    </filter>
    <filter id="Ellipse_104" x="232.029" y="232.029" width="294.988" height="294.988" filterUnits="userSpaceOnUse">
      <feOffset dy="3" input="SourceAlpha"/>
      <feGaussianBlur stdDeviation="12.5" result="blur-3"/>
      <feFlood flood-opacity="0.09"/>
      <feComposite operator="in" in2="blur-3"/>
      <feComposite in="SourceGraphic"/>
    </filter>
    <filter id="Path_944" x="111.522" y="77.523" width="531.912" height="570.397" filterUnits="userSpaceOnUse">
      <feOffset dy="3" input="SourceAlpha"/>
      <feGaussianBlur stdDeviation="22.5" result="blur-4"/>
      <feFlood flood-color="#fed208" flood-opacity="0.349"/>
      <feComposite operator="in" in2="blur-4"/>
      <feComposite in="SourceGraphic"/>
    </filter>
  </defs>
  <g id="Group_595" data-name="Group 595" transform="translate(-1068.978 -2209.977)">
    <g id="Group_521" data-name="Group 521" transform="translate(-7941.522 203.477)">
      <g class="cls-39" transform="matrix(1, 0, 0, 1, 9010.5, 2006.5)">
        <g id="Ellipse_102-2" data-name="Ellipse 102" class="cls-1" transform="translate(52.5 49.5)">
          <circle class="cls-34" cx="327.023" cy="327.023" r="327.023"/>
          <circle class="cls-35" cx="327.023" cy="327.023" r="326.523"/>
        </g>
      </g>
      <g class="cls-38" transform="matrix(1, 0, 0, 1, 9010.5, 2006.5)">
        <g id="Ellipse_103-2" data-name="Ellipse 103" class="cls-1" transform="translate(156.08 153.08)">
          <circle class="cls-34" cx="223.441" cy="223.441" r="223.441"/>
          <circle class="cls-35" cx="223.441" cy="223.441" r="222.941"/>
        </g>
      </g>
      <g class="cls-37" transform="matrix(1, 0, 0, 1, 9010.5, 2006.5)">
        <g id="Ellipse_104-2" data-name="Ellipse 104" class="cls-1" transform="translate(269.53 266.53)">
          <circle class="cls-34" cx="109.994" cy="109.994" r="109.994"/>
          <circle class="cls-35" cx="109.994" cy="109.994" r="109.494"/>
        </g>
      </g>
    </g>
    <g id="Group_502" data-name="Group 502" transform="translate(140.912 198.032)">
      <g id="Group_375" data-name="Group 375" transform="translate(0.851 -61)">
        <g class="cls-36" transform="matrix(1, 0, 0, 1, 927.22, 2072.95)">
          <path id="Path_944-2" data-name="Path 944" class="cls-2" d="M6019.775,1915.38s45.579-8.837,54.415,53.485,17.209,84.181,64.183,131.155-50.042,209-50.042,209-30.654,61.308-135.978,34.584c-38.618-7.352-53.286-32.037-130.92-15.938s-66.187-74.772-62.252-91.586,17.173-59.03,0-84.074,15.027-77.992,33.988-98.384-9.3-70.836,83.357-81.569c21.466-2.862,67.617,10.375,89.8-31.841C5978.847,1918.743,6019.775,1915.38,6019.775,1915.38Z" transform="translate(-5575.28 -1772.93)"/>
        </g>
      </g>
      <g id="Group_488" data-name="Group 488" transform="translate(-2628.681 -433.596)">
        <g id="Group_471" data-name="Group 471" transform="translate(3793.936 2678.815)">
          <path id="Path_1914" data-name="Path 1914" class="cls-3" d="M826.978,378.984l-.949-2q1.546-.728,3.059-1.394l.891,2.028Q828.49,378.269,826.978,378.984Z" transform="translate(-631.411 -146.921)"/>
          <path id="Path_1915" data-name="Path 1915" class="cls-3" d="M824.545,507.51a65.628,65.628,0,0,1-6.725-.922l.417-2.177a63.648,63.648,0,0,0,6.5.891Zm-13.322-2.529c-2.146-.638-4.3-1.394-6.4-2.248l.836-2.055c2.035.827,4.118,1.558,6.2,2.177ZM942.941,500.6l-.791-2.073c2.153-.822,4.265-1.569,6.335-2.266l.7,2.1C947.146,499.058,945.062,499.8,942.941,500.6ZM798.659,499.9c-1.986-1.026-3.964-2.157-5.879-3.363l1.177-1.878c1.867,1.173,3.791,2.272,5.719,3.27Zm156.875-3.556-.654-2.119c1.454-.448,2.891-.88,4.309-1.31l2.09-.634.645,2.121-2.095.634C958.416,495.46,956.984,495.892,955.534,496.34ZM787.19,492.707c-1.782-1.326-3.556-2.749-5.278-4.229l1.445-1.68c1.68,1.445,3.416,2.835,5.156,4.13Zm181.134-.317-.694-2.106c2.327-.765,4.369-1.492,6.24-2.219l.8,2.066C972.767,490.874,970.689,491.612,968.324,492.39Zm12.566-4.957-.971-1.993a63.1,63.1,0,0,0,5.75-3.165l1.168,1.882A65.262,65.262,0,0,1,980.891,487.433ZM776.942,483.9c-1.592-1.567-3.161-3.21-4.666-4.888l1.649-1.481c1.476,1.643,3.013,3.254,4.573,4.788Zm215.464-3.655L991.03,478.5a61.43,61.43,0,0,0,4.917-4.34l1.554,1.583A64.49,64.49,0,0,1,992.406,480.242Zm-224.5-6.38c-1.394-1.744-2.764-3.556-4.072-5.384l1.8-1.288c1.281,1.8,2.629,3.576,4,5.287Zm234.2-3.094-1.693-1.43c1.363-1.618,2.724-3.369,4.039-5.209l1.8,1.29C1004.9,467.308,1003.505,469.106,1002.1,470.768Zm-242.054-7.887c-1.2-1.878-2.381-3.819-3.5-5.772l1.922-1.1c1.1,1.922,2.263,3.833,3.445,5.681Zm249.934-3.11-1.9-1.15c1.135-1.873,2.206-3.815,3.185-5.775l1.984.991C1012.252,455.85,1011.151,457.847,1009.985,459.771Zm-256.65-8.592c-1.022-2-2.006-4.043-2.926-6.069l2.017-.915c.907,2,1.878,4.008,2.884,5.976Zm-5.57-12.265c-.829-2.073-1.621-4.2-2.356-6.32l2.095-.725c.723,2.088,1.505,4.183,2.319,6.222Zm-4.413-12.742c-.638-2.177-1.226-4.369-1.745-6.515l2.157-.519c.508,2.11,1.086,4.267,1.714,6.413Zm-3.157-13.116c-.419-2.259-.776-4.5-1.057-6.668l2.2-.286c.275,2.126.623,4.329,1.035,6.548Zm-1.725-13.391c-.155-2.294-.235-4.569-.237-6.761l2.217,0c0,2.141.08,4.367.233,6.61Zm281.211-4.941q-.349-3.3-.827-6.6l2.195-.315q.479,3.335.836,6.674ZM740.686,386.3l-2.212-.157c.16-2.234.392-4.5.687-6.717l2.2.293C741.069,381.895,740.841,384.109,740.686,386.3Zm277.124-4.741q-.575-3.275-1.239-6.541l2.172-.441q.668,3.3,1.248,6.6ZM742.43,373.192l-2.172-.426c.43-2.195.935-4.409,1.5-6.584l2.148.556C743.348,368.869,742.852,371.039,742.43,373.192Zm272.744-4.679c-.508-2.146-1.075-4.3-1.7-6.4l2.126-.627c.632,2.139,1.215,4.331,1.727,6.517ZM745.751,360.4l-2.108-.685c.689-2.124,1.452-4.256,2.265-6.346l2.066.8C747.176,356.225,746.427,358.32,745.751,360.4Zm265.663-4.575c-.736-2.044-1.549-4.114-2.425-6.156l2.039-.873c.889,2.081,1.72,4.194,2.472,6.278Zm-260.853-7.738-2.017-.922c.92-2.008,1.922-4.043,2.984-6.049l1.962,1.037C752.448,344.12,751.461,346.117,750.561,348.088ZM1006.2,343.67c-.975-1.951-2.033-3.91-3.139-5.823l1.917-1.111c1.128,1.951,2.206,3.95,3.2,5.941Zm-6.619-11.451c-1.215-1.838-2.5-3.662-3.815-5.424l1.776-1.328c1.341,1.8,2.649,3.655,3.888,5.528Zm-7.933-10.609c-1.414-1.68-2.9-3.345-4.407-4.945l1.616-1.521c1.536,1.631,3.048,3.325,4.489,5.036ZM772.7,315.254l-1.622-1.51c1.51-1.625,3.094-3.247,4.717-4.826l1.545,1.589C775.749,312.06,774.189,313.656,772.7,315.254Zm209.861-3.283c-1.578-1.5-3.234-2.993-4.919-4.431l1.436-1.687c1.716,1.465,3.4,2.984,5.01,4.511Zm-200.358-5.978-1.467-1.66c1.663-1.47,3.4-2.93,5.161-4.343l1.385,1.729C785.552,303.109,783.845,304.548,782.207,305.993Zm190.3-2.622c-1.738-1.337-3.538-2.651-5.349-3.906l1.259-1.822c1.844,1.277,3.673,2.611,5.44,3.97Zm-179.94-5.681-1.3-1.793c1.8-1.312,3.671-2.6,5.546-3.833l1.217,1.853C796.178,295.129,794.341,296.4,792.563,297.689Zm169.06-1.866c-1.842-1.15-3.76-2.285-5.7-3.376l1.086-1.933c1.971,1.108,3.917,2.263,5.785,3.431Zm-36.132-16.4q-3.166-.984-6.377-1.851l.576-2.141q3.255.878,6.459,1.875Zm-12.817-3.458q-3.235-.742-6.5-1.361l.417-2.177q3.305.628,6.581,1.379Z" transform="translate(-738.232 -272.43)"/>
          <path id="Path_1916" data-name="Path 1916" class="cls-3" d="M780.455,379.884l-.055-2.217c1.08-.027,2.17-.082,3.265-.166l.168,2.21Q782.135,379.841,780.455,379.884Z" transform="translate(-686.927 -144.591)"/>
        </g>
        <g id="Group_476" data-name="Group 476" transform="translate(3841.737 2766.897)">
          <g id="Group_472" data-name="Group 472" transform="translate(13.776 0)">
            <path id="Path_1917" data-name="Path 1917" class="cls-4" d="M860.035,394.733c-9.962-5.843-14.1-22.96-14.346-24V358.856l-47.129,1.261v10.427s-4.094,18.073-14.373,24.1c-5.484,3.212,5.537,13.755,17.015,22.892l4.4,10.093,16.53,16.153,12.764-16.388,4.3-6.788C851.844,410.917,866.124,398.3,860.035,394.733Z" transform="translate(-745.663 -255.359)"/>
            <path id="Path_1918" data-name="Path 1918" class="cls-4" d="M790.622,369.064s-5.843,6.2-8.669-8.623c-3.032-15.838-2.924-24.43,2.509-26.237,3.474-1.155,4.478,1.807,4.478,1.807Z" transform="translate(-749.044 -285.677)"/>
            <path id="Path_1919" data-name="Path 1919" class="cls-4" d="M790.149,360.438v11.205a13.584,13.584,0,0,0,4.992,10.52l9.767,7.973a13.583,13.583,0,0,0,17.126.044l9.922-8.016A13.593,13.593,0,0,0,837,371.6V359.367Z" transform="translate(-736.643 -254.737)"/>
            <path id="Path_1920" data-name="Path 1920" class="cls-5" d="M790.149,368.671c6.3,6.978,14.189,10.789,22.949,10.789,9.184,0,17.432-4.141,23.878-11.8v-8.293l-46.828,1.066Z" transform="translate(-736.643 -254.736)"/>
            <path id="Path_1921" data-name="Path 1921" class="cls-6" d="M821.25,429.869c21.382,0,37.788-22.409,37.788-59.516,0-46.287-13.575-57.013-37.788-57.013s-37.8,10.727-37.8,57.013C783.449,407.461,799.861,429.869,821.25,429.869Z" transform="translate(-744.794 -310.738)"/>
            <path id="Path_1922" data-name="Path 1922" class="cls-4" d="M816.471,369.064s5.852,6.2,8.689-8.623c3.021-15.838,2.917-24.43-2.516-26.237-3.467-1.155-4.475,1.807-4.475,1.807Z" transform="translate(-704.617 -285.677)"/>
            <path id="Path_1923" data-name="Path 1923" class="cls-7" d="M800.714,313.34v116.5c21.147-.328,37.318-22.652,37.318-59.483C838.032,324.37,824.621,313.471,800.714,313.34Z" transform="translate(-723.788 -310.738)"/>
            <path id="Path_1924" data-name="Path 1924" class="cls-8" d="M856.68,321.246c4.165,2.381,7.537,10.525,9.614,16.845a29.421,29.421,0,0,1,.909,14.934l-6.222,31.7s-1.691-11.715-2.237-21.336c-1.521-26.953-9.733-29.36-18.478-29.36-4.48,0-15.765,3.332-15.765,3.332h-.106s-11.283-3.332-15.761-3.332c-8.754,0-17.011,2.407-18.529,29.36-.543,9.62-2.188,21.336-2.188,21.336L781.729,353.2a29.646,29.646,0,0,1,1.009-15.222c2.117-6.231,5.48-14.2,9.477-16.736C813.694,309.929,833.351,308.375,856.68,321.246Z" transform="translate(-747.563 -312.166)"/>
            <path id="Path_1925" data-name="Path 1925" class="cls-9" d="M918.907,433.869l-9.822-37.489a13.538,13.538,0,0,0-6.032-8.135L868.433,367l-25.971,29.617L816.485,367l-34.618,21.245a13.564,13.564,0,0,0-6.034,8.135l-9.822,37.489h152.9Z" transform="translate(-766.011 -245.45)"/>
            <path id="Path_1926" data-name="Path 1926" class="cls-10" d="M818.685,407.112l-33.131-36.87,1.751-1.578,31.379,34.926,31.541-35.09,1.756,1.574Z" transform="translate(-742.233 -243.626)"/>
          </g>
          <g id="Group_473" data-name="Group 473" transform="translate(8.252 45.951)">
            <path id="Path_1927" data-name="Path 1927" class="cls-11" d="M800.634,350.563c15.379-21.892,42.56-20.464,76.07-11.644a24.443,24.443,0,0,0,3.58,4.85l-79.652,9.7v-2.906Z" transform="translate(-718.364 -332.896)"/>
            <path id="Path_1928" data-name="Path 1928" class="cls-12" d="M879.239,439.688l-75.593,5.724V343.435l75.593-5.723Z" transform="translate(-714.697 -327.037)"/>
            <path id="Path_1929" data-name="Path 1929" class="cls-13" d="M876.987,339.114s-1.259-.086-3.434-.432c-2.17-.326-5.278-.791-9-1.352s-8.073-1.024-12.737-1.39A106.462,106.462,0,0,0,837.2,335.7a69.678,69.678,0,0,0-14.411,1.955,59.378,59.378,0,0,0-6.4,1.96,42.532,42.532,0,0,0-5.457,2.472,46.037,46.037,0,0,0-4.318,2.669,37.02,37.02,0,0,0-3.1,2.418c-1.616,1.47-2.525,2.352-2.525,2.352s.206-.237.585-.689.9-1.15,1.685-1.933a37.223,37.223,0,0,1,2.926-2.711,31.47,31.47,0,0,1,4.216-3.039,44.5,44.5,0,0,1,5.473-2.833,42.854,42.854,0,0,1,6.5-2.272,70.757,70.757,0,0,1,14.736-2.252,109.245,109.245,0,0,1,14.852.49c4.724.45,9.068,1.275,12.773,1.984,3.711.729,6.752,1.543,8.891,2.046C875.757,338.861,876.987,339.114,876.987,339.114Z" transform="translate(-717.928 -331.889)"/>
            <path id="Path_1930" data-name="Path 1930" class="cls-13" d="M876.835,339.229s-1.195-.055-3.272-.155c-2.079-.164-5.054-.352-8.607-.7-1.776-.151-3.7-.317-5.728-.488s-4.183-.253-6.4-.428c-2.212-.1-4.5-.233-6.827-.228-2.327-.071-4.682.062-7.042.115-2.348.157-4.713.2-7.011.508-2.312.2-4.566.57-6.743.949-2.179.35-4.245.9-6.238,1.288-1.962.505-3.8,1.062-5.5,1.536-1.68.581-3.214,1.117-4.582,1.587-1.381.426-2.5,1.02-3.465,1.394-1.926.794-3.03,1.252-3.03,1.252s1.049-.576,2.869-1.589c.931-.459,2.006-1.162,3.356-1.711,1.334-.594,2.833-1.283,4.5-1.948,1.7-.578,3.529-1.244,5.493-1.864,2-.5,4.074-1.206,6.3-1.569,2.212-.43,4.5-.847,6.854-1.1,2.341-.357,4.741-.443,7.135-.643,2.4-.011,4.8-.1,7.153.013,2.356.04,4.671.211,6.909.359,4.469.368,8.6.978,12.136,1.5s6.457,1.077,8.514,1.39C875.658,339.038,876.835,339.229,876.835,339.229Z" transform="translate(-716.225 -329.854)"/>
            <path id="Path_1931" data-name="Path 1931" class="cls-11" d="M844.351,350.563c-15.379-21.892-42.565-20.464-76.072-11.644a24.291,24.291,0,0,1-3.578,4.85l79.652,9.7v-2.906Z" transform="translate(-762.081 -332.896)"/>
            <path id="Path_1932" data-name="Path 1932" class="cls-14" d="M810.979,442.357c-5.216,1.689-8.149,1.689-13.36,0V340.294c5.214,1.689,8.146,1.689,13.36,0Z" transform="translate(-722.03 -323.894)"/>
            <path id="Path_1933" data-name="Path 1933" class="cls-15" d="M810.979,352.109c-5.216,1.689-8.149,1.689-13.36,0v-6.366c5.214,1.691,8.146,1.691,13.36,0Z" transform="translate(-722.03 -317.265)"/>
            <path id="Path_1934" data-name="Path 1934" class="cls-15" d="M810.979,382.437c-5.216,1.689-8.149,1.689-13.36,0v-6.355c5.214,1.689,8.146,1.689,13.36,0Z" transform="translate(-722.03 -280.352)"/>
            <path id="Path_1935" data-name="Path 1935" class="cls-15" d="M810.979,367.669c-5.216,1.687-8.149,1.687-13.36,0v-6.362c5.214,1.691,8.146,1.691,13.36,0Z" transform="translate(-722.03 -298.328)"/>
            <path id="Path_1936" data-name="Path 1936" class="cls-12" d="M763.519,439.688l75.589,5.724V343.435l-75.589-5.723Z" transform="translate(-763.519 -327.037)"/>
            <path id="Path_1937" data-name="Path 1937" class="cls-13" d="M765.989,339.114s1.232-.255,3.363-.794c2.139-.5,5.176-1.317,8.887-2.046,3.713-.707,8.055-1.534,12.779-1.984a109.281,109.281,0,0,1,14.852-.49,70.582,70.582,0,0,1,14.737,2.257,42.362,42.362,0,0,1,6.5,2.268,46.014,46.014,0,0,1,5.477,2.833,31.559,31.559,0,0,1,4.212,3.039,36.6,36.6,0,0,1,2.933,2.711c.778.782,1.288,1.49,1.685,1.933.377.45.578.689.578.689s-.9-.88-2.52-2.352a36.9,36.9,0,0,0-3.106-2.418,45.842,45.842,0,0,0-4.323-2.669,42.25,42.25,0,0,0-5.457-2.472,59.1,59.1,0,0,0-6.389-1.96,69.759,69.759,0,0,0-14.413-1.955,106.893,106.893,0,0,0-14.621.235c-4.664.366-9.02.842-12.737,1.388l-9,1.354C767.253,339.03,765.989,339.114,765.989,339.114Z" transform="translate(-760.514 -331.889)"/>
            <path id="Path_1938" data-name="Path 1938" class="cls-13" d="M765.292,339.228l3.234-.525c2.059-.315,4.976-.871,8.514-1.39s7.672-1.133,12.134-1.5c2.243-.148,4.551-.321,6.909-.359,2.356-.115,4.757-.027,7.156-.013,2.394.2,4.795.286,7.133.643,2.352.248,4.644.667,6.854,1.1,2.223.364,4.3,1.066,6.293,1.569,1.968.621,3.8,1.292,5.5,1.864,1.669.665,3.17,1.354,4.5,1.948,1.35.55,2.425,1.252,3.358,1.711,1.822,1.013,2.864,1.589,2.864,1.589s-1.1-.459-3.024-1.252c-.971-.375-2.082-.971-3.476-1.392-1.359-.472-2.9-1.009-4.571-1.589-1.711-.472-3.547-1.031-5.508-1.536-1.993-.386-4.057-.938-6.238-1.288-2.177-.379-4.429-.749-6.743-.949-2.3-.312-4.664-.35-7.014-.508-2.356-.053-4.713-.186-7.036-.115-2.33,0-4.615.126-6.832.228-2.21.177-4.358.25-6.393.428s-3.952.335-5.732.488c-3.542.348-6.524.536-8.6.7C766.482,339.17,765.292,339.228,765.292,339.228Z" transform="translate(-761.362 -329.853)"/>
            <path id="Path_1939" data-name="Path 1939" class="cls-16" d="M807.313,441.661v-100.8h-6.681V442.927A21.187,21.187,0,0,0,807.313,441.661Z" transform="translate(-718.364 -323.198)"/>
            <path id="Path_1940" data-name="Path 1940" class="cls-17" d="M818.014,374.193l-5.251-3.106-5.245,3.813V340.388l10.5-.707Z" transform="translate(-709.986 -324.64)"/>
            <path id="Path_1941" data-name="Path 1941" class="cls-18" d="M810.518,340l-.634.04v31.051l5.251,3.106V339.681Z" transform="translate(-707.107 -324.64)"/>
          </g>
          <g id="Group_474" data-name="Group 474" transform="translate(135.168 63.606)">
            <path id="Path_1942" data-name="Path 1942" class="cls-6" d="M842.616,394.333a4.758,4.758,0,0,1-3.644-3.93l-6.479-42.818a4.771,4.771,0,0,1,9.434-1.43l6.475,42.822A4.766,4.766,0,0,1,844.4,394.4,4.651,4.651,0,0,1,842.616,394.333Z" transform="translate(-806.58 -339.351)"/>
            <path id="Path_1943" data-name="Path 1943" class="cls-6" d="M838.614,393.963a5.255,5.255,0,0,1-4.008-4.274l-6.958-42.74a5.25,5.25,0,0,1,10.363-1.685L844.962,388a5.256,5.256,0,0,1-6.349,5.961Z" transform="translate(-812.493 -340.86)"/>
            <path id="Path_1944" data-name="Path 1944" class="cls-6" d="M837.05,396.122a4.761,4.761,0,0,1-3.584-3.582l-9.656-42.212A4.767,4.767,0,1,1,833.1,348.2l9.665,42.208a4.771,4.771,0,0,1-5.719,5.712Z" transform="translate(-817.228 -336.439)"/>
            <path id="Path_1945" data-name="Path 1945" class="cls-6" d="M831.164,401.359a4.754,4.754,0,0,1-3.644-3.912l-6.688-42.784a4.768,4.768,0,1,1,9.421-1.474l6.692,42.78a4.774,4.774,0,0,1-3.975,5.451A4.7,4.7,0,0,1,831.164,401.359Z" transform="translate(-820.773 -330.769)"/>
            <path id="Path_1946" data-name="Path 1946" class="cls-6" d="M821.564,362.065l36.289-10.093,4.511,9.855a26.781,26.781,0,0,1,2.106,15.3l-3.777,24.04-32.8.038Z" transform="translate(-819.812 -327.341)"/>
            <path id="Path_1947" data-name="Path 1947" class="cls-5" d="M832.607,343.966s1.434,6.2,2.707,12.429c.324,1.554.7,3.1.973,4.569a39.643,39.643,0,0,1,.423,4.052c.044,1.2.082,2.2.044,2.911-.022.7-.064,1.117-.064,1.117l-.184.029s-.175-.375-.417-1.042c-.259-.658-.539-1.618-.882-2.771-.326-1.148-.618-2.509-.88-3.974-.213-1.474-.333-3.066-.521-4.64-.778-6.311-1.379-12.646-1.379-12.646Z" transform="translate(-806.595 -337.082)"/>
            <path id="Path_1948" data-name="Path 1948" class="cls-5" d="M828.3,347.128s1.281,5.152,2.392,10.334c.284,1.292.627,2.58.86,3.8a28.474,28.474,0,0,1,.326,3.385c.011,1,.027,1.838-.029,2.436-.035.59-.089.935-.089.935l-.191.031s-.162-.31-.383-.858c-.248-.545-.5-1.339-.813-2.3a28.5,28.5,0,0,1-.785-3.307c-.173-1.226-.262-2.556-.408-3.875-.621-5.262-1.069-10.552-1.069-10.552Z" transform="translate(-811.841 -333.235)"/>
            <path id="Path_1949" data-name="Path 1949" class="cls-5" d="M824.47,349.671s1.467,4.73,2.766,9.492c.328,1.19.727,2.365,1,3.491a24.754,24.754,0,0,1,.448,3.134c.049.935.1,1.716.062,2.274-.011.556-.051.88-.051.88l-.189.044s-.175-.279-.417-.778c-.266-.5-.55-1.226-.9-2.093a25.987,25.987,0,0,1-.9-3.037c-.222-1.135-.352-2.372-.55-3.589-.811-4.87-1.459-9.778-1.459-9.778Z" transform="translate(-816.5 -330.141)"/>
            <rect id="Rectangle_526" data-name="Rectangle 526" class="cls-19" width="42.379" height="14.892" transform="matrix(1, -0.002, 0.002, 1, 3.377, 73.022)"/>
            <rect id="Rectangle_527" data-name="Rectangle 527" class="cls-20" width="42.376" height="39.096" transform="matrix(1, -0.002, 0.002, 1, 3.355, 85.794)"/>
            <rect id="Rectangle_528" data-name="Rectangle 528" class="cls-21" width="22.249" height="39.094" transform="matrix(1, -0.002, 0.002, 1, 23.476, 85.764)"/>
          </g>
          <g id="Group_475" data-name="Group 475" transform="translate(0 63.606)">
            <path id="Path_1950" data-name="Path 1950" class="cls-6" d="M767.435,394.333a4.748,4.748,0,0,0,3.649-3.93l6.479-42.818a4.769,4.769,0,0,0-9.43-1.43l-6.477,42.822a4.765,4.765,0,0,0,4.006,5.424A4.6,4.6,0,0,0,767.435,394.333Z" transform="translate(-757.6 -339.351)"/>
            <path id="Path_1951" data-name="Path 1951" class="cls-6" d="M772.234,393.963a5.25,5.25,0,0,0,4.005-4.274l6.963-42.74a5.252,5.252,0,0,0-10.367-1.685L765.883,388a5.256,5.256,0,0,0,6.351,5.961Z" transform="translate(-752.473 -340.86)"/>
            <path id="Path_1952" data-name="Path 1952" class="cls-6" d="M774.754,396.122a4.771,4.771,0,0,0,3.584-3.582l9.656-42.212a4.768,4.768,0,0,0-9.3-2.126l-9.66,42.208a4.77,4.77,0,0,0,5.717,5.712Z" transform="translate(-748.697 -336.439)"/>
            <path id="Path_1953" data-name="Path 1953" class="cls-6" d="M779.011,401.359a4.768,4.768,0,0,0,3.649-3.912l6.685-42.784a4.768,4.768,0,1,0-9.421-1.474l-6.694,42.78a4.774,4.774,0,0,0,3.979,5.451A4.678,4.678,0,0,0,779.011,401.359Z" transform="translate(-743.522 -330.769)"/>
            <path id="Path_1954" data-name="Path 1954" class="cls-6" d="M803.434,362.065l-36.289-10.093-4.513,9.853a26.791,26.791,0,0,0-2.106,15.311l3.777,24.038,32.8.038Z" transform="translate(-759.305 -327.341)"/>
            <path id="Path_1955" data-name="Path 1955" class="cls-5" d="M771.23,344s-.607,6.335-1.383,12.646c-.184,1.574-.308,3.165-.521,4.639-.264,1.465-.552,2.826-.878,3.975-.346,1.155-.623,2.112-.887,2.771-.237.665-.414,1.042-.414,1.042l-.189-.029s-.042-.415-.06-1.117c-.042-.709,0-1.709.04-2.91.055-1.2.211-2.58.428-4.052.266-1.467.652-3.015.973-4.569,1.266-6.231,2.7-12.429,2.7-12.429Z" transform="translate(-751.176 -337.084)"/>
            <path id="Path_1956" data-name="Path 1956" class="cls-5" d="M775.223,347.16s-.448,5.289-1.071,10.551c-.142,1.319-.231,2.649-.406,3.875a28.645,28.645,0,0,1-.783,3.307c-.319.955-.565,1.751-.814,2.3-.226.55-.386.858-.386.858l-.191-.031s-.051-.346-.086-.935c-.058-.6-.042-1.434-.031-2.436a29.454,29.454,0,0,1,.326-3.385c.231-1.217.576-2.5.862-3.8,1.106-5.183,2.388-10.334,2.388-10.334Z" transform="translate(-745.622 -333.233)"/>
            <path id="Path_1957" data-name="Path 1957" class="cls-5" d="M779.438,349.713s-.645,4.908-1.459,9.778c-.2,1.217-.328,2.454-.552,3.589a24.706,24.706,0,0,1-.9,3.037c-.346.869-.627,1.6-.893,2.093-.242.5-.417.778-.417.778l-.186-.044a7.98,7.98,0,0,1-.058-.88c-.031-.556.016-1.339.062-2.274a25.647,25.647,0,0,1,.452-3.134c.275-1.126.674-2.3,1-3.491,1.3-4.761,2.764-9.492,2.764-9.492Z" transform="translate(-741.345 -330.141)"/>
            <rect id="Rectangle_529" data-name="Rectangle 529" class="cls-19" width="42.379" height="14.892" transform="matrix(-1, -0.002, 0.002, -1, 42.49, 87.91)"/>
            <rect id="Rectangle_530" data-name="Rectangle 530" class="cls-20" width="42.374" height="39.096" transform="matrix(-1, -0.002, 0.002, -1, 42.38, 124.88)"/>
            <rect id="Rectangle_531" data-name="Rectangle 531" class="cls-21" width="22.249" height="39.094" transform="matrix(-1, -0.002, 0.002, -1, 22.249, 124.85)"/>
          </g>
        </g>
        <circle id="Ellipse_87" data-name="Ellipse 87" class="cls-22" cx="14.632" cy="14.632" r="14.632" transform="translate(3786.734 2825.785)"/>
        <circle id="Ellipse_88" data-name="Ellipse 88" class="cls-22" cx="15.284" cy="15.284" r="15.284" transform="translate(4010.739 2711.078)"/>
        <g id="Group_477" data-name="Group 477" transform="translate(3761.681 2794.791)">
          <path id="Path_1958" data-name="Path 1958" class="cls-23" d="M745.832,329.214c-7.889-.986-16.437-3.394-20.617,5.743a25.3,25.3,0,0,0-.383,16.246c3.631,15.091,13.735,18.707,24.971,18.707,15.253,0,23.94-12.292,23.978-25.818.173-7.984-3.693-14.548-11.549-15.809-6.218-1.06-9.893,1.068-16.4.931Z" transform="translate(-723.681 -320.812)"/>
          <path id="Path_1959" data-name="Path 1959" class="cls-24" d="M741.167,333.37c-7.362,0-12.673-2.917-12.123-4.121.634-1.408,6.072.279,7.078.483a27.022,27.022,0,0,0,4.914.5,19.736,19.736,0,0,0,3.372-.328c1.381-.222,3.048-1.43,4.256-.459C749.936,330.481,746.846,333.37,741.167,333.37Z" transform="translate(-717.205 -319.952)"/>
          <path id="Path_1960" data-name="Path 1960" class="cls-25" d="M735.807,327.541a26.036,26.036,0,0,0-.942,4.97,38.611,38.611,0,0,0,.25,4.9,3.021,3.021,0,0,1-1.19-.193c-.559-3.766-.078-8.051-.341-11.407a1.075,1.075,0,0,1,1.592-.953C736.361,325.238,736.058,326.7,735.807,327.541Z" transform="translate(-711.633 -324.75)"/>
          <path id="Path_1961" data-name="Path 1961" class="cls-26" d="M750.381,335.3c0,1.922-2.456,1.572-3.467,1.111-1.53-.614-6.575-1.383-7.557-2.673-1.474-1.838,1.224-2.456,2.516-4.3,1.445-1.924,5.879.924,7.151,2.9C750.031,333.916,750.405,334.286,750.381,335.3Z" transform="translate(-705.13 -319.82)"/>
          <path id="Path_1962" data-name="Path 1962" class="cls-24" d="M769.477,358.5a22.474,22.474,0,0,1-19.669,10.527c-11.243,0-21.327-3.618-24.967-18.72a25.443,25.443,0,0,1,.375-16.244,11.014,11.014,0,0,1,4.648-5.351,16.276,16.276,0,0,0-.7,3.2,32.653,32.653,0,0,0,.375,9.319A25.8,25.8,0,0,0,738.3,356.2C746.368,362.9,759.343,363.106,769.477,358.5Z" transform="translate(-723.663 -319.929)"/>
        </g>
        <g id="Group_478" data-name="Group 478" transform="translate(3850.497 2664.951)">
          <path id="Path_1963" data-name="Path 1963" class="cls-27" d="M860.979,295.711l-3.56,3.576s-4.622-3.314-12.373-8.827c-.975-.7-1.973-1.428-3.032-2.157l-.774-.568-.694-.421a7.988,7.988,0,0,0-1.405-.743l-.751-.337c-.235-.1-.454-.14-.692-.224l-.685-.211-1.033-.2-.545-.1-.164-.007a.1.1,0,0,0-.055-.022h-.1l-1.08-.122c-.729-.075-1.443-.166-2.177-.253-5.533-.623-11.358-1.237-17.264-1.9-.417-.042-.862-.109-1.283-.146-1.239-.129-2.472-.257-3.715-.4-16.537-1.842-32.565-3.6-40.86-4.52-2.312-.277-4.03-.47-4.983-.559l-.007-1.694a9.927,9.927,0,0,1,6.2-9.25c5.127.909,13.52,2.436,23.231,4.178,5.041.918,10.432,1.875,15.949,2.882,1.778.324,3.578.643,5.373.973.031-.009.031-.009.047,0,6.242,1.142,12.478,2.259,18.354,3.316.7.133,1.45.273,2.155.392l1.079.191.344.084.146.022.253.071.521.122,1.033.257,1.319.472c.412.16.88.319,1.272.5l1.111.587a13.7,13.7,0,0,1,2.026,1.3l.951.694.749.605c1,.82,1.959,1.594,2.884,2.352C856.1,291.674,860.979,295.711,860.979,295.711Z" transform="translate(-763.748 -265.624)"/>
          <path id="Path_1964" data-name="Path 1964" class="cls-27" d="M769.984,296.128l3.582,3.567s4.611-3.358,12.318-8.913c.977-.7,1.971-1.434,3.039-2.188l.765-.556.681-.423a5.989,5.989,0,0,1,1.408-.76l.745-.335c.23-.1.452-.14.7-.235l.665-.206,1.037-.211.545-.1.171-.015s.022-.031.035-.022l.109-.009,1.075-.106c.743-.1,1.463-.193,2.19-.282,5.524-.652,11.358-1.306,17.255-2.011.423-.035.862-.086,1.266-.135,1.246-.14,2.463-.286,3.708-.426,16.543-1.935,32.565-3.808,40.84-4.773,2.321-.288,4.028-.5,4.988-.594l-.016-1.689a9.907,9.907,0,0,0-6.236-9.213c-5.127.938-13.511,2.516-23.2,4.314-5.034.946-10.43,1.951-15.934,2.981-1.771.328-3.6.674-5.384,1.015h-.038c-6.238,1.164-12.471,2.325-18.328,3.425-.718.142-1.454.275-2.181.412l-1.068.193-.344.078-.133.029-.259.08-.508.118-1.031.264-1.326.481c-.417.157-.878.324-1.275.5l-1.088.61a11.989,11.989,0,0,0-2.026,1.283l-.951.7-.743.625c-1,.825-1.953,1.6-2.871,2.359C774.845,292.069,769.984,296.128,769.984,296.128Z" transform="translate(-756.161 -265.788)"/>
          <path id="Path_1965" data-name="Path 1965" class="cls-28" d="M814.5,275.125a9.947,9.947,0,0,0-9.926-8.873l-30.892.1a9.627,9.627,0,0,0-3.74.736,9.927,9.927,0,0,0-6.2,9.25l.044,13.939a9.965,9.965,0,0,0,10,9.94l30.885-.093a9.96,9.96,0,0,0,9.935-9.993l-.047-13.952A6.622,6.622,0,0,0,814.5,275.125Zm-4.87,15.018a5.011,5.011,0,0,1-4.968,5.007l-30.89.089a4.994,4.994,0,0,1-5-4.968l-.038-13.947a5,5,0,0,1,4.959-5l30.9-.084a4.968,4.968,0,0,1,4.533,2.911,4.815,4.815,0,0,1,.459,2.044Z" transform="translate(-763.748 -266.083)"/>
          <path id="Path_1966" data-name="Path 1966" class="cls-28" d="M831.705,271.146a4.982,4.982,0,0,1,5,4.972l.047,13.941a5.008,5.008,0,0,1-4.972,5.012l-30.892.075a4.976,4.976,0,0,1-5-4.954l-.047-13.95a5,5,0,0,1,4.974-5l30.885-.1Zm-.007-4.97-30.887.082a9.971,9.971,0,0,0-9.944,10l.044,13.95a9.954,9.954,0,0,0,9.991,9.929l30.9-.082a9.963,9.963,0,0,0,9.924-10l-.04-13.95a9.923,9.923,0,0,0-9.984-9.924Z" transform="translate(-730.753 -266.176)"/>
          <rect id="Rectangle_532" data-name="Rectangle 532" class="cls-28" width="15.187" height="5.978" transform="translate(48.586 8.2) rotate(-0.155)"/>
          <path id="Path_1967" data-name="Path 1967" class="cls-29" d="M806.9,287.406a5.011,5.011,0,0,1-4.968,5.007l-30.89.089a4.994,4.994,0,0,1-5-4.968L766,273.587a5,5,0,0,1,4.959-5l30.9-.084a4.968,4.968,0,0,1,4.533,2.911,4.814,4.814,0,0,1,.459,2.044Z" transform="translate(-761.012 -263.346)"/>
          <path id="Path_1968" data-name="Path 1968" class="cls-29" d="M834.02,287.332a5.02,5.02,0,0,1-4.972,5.014l-30.892.069a4.981,4.981,0,0,1-5-4.948l-.047-13.956a5,5,0,0,1,4.974-4.994l30.885-.1a4.974,4.974,0,0,1,4.533,2.913,4.748,4.748,0,0,1,.468,2.066Z" transform="translate(-728.02 -263.452)"/>
          <path id="Path_1969" data-name="Path 1969" class="cls-29" d="M792.672,268.5l-19.123.062,22.615,22.455a5.024,5.024,0,0,0,1.545-3.613l-.047-13.95a4.814,4.814,0,0,0-.459-2.044A4.965,4.965,0,0,0,792.672,268.5Z" transform="translate(-751.824 -263.346)"/>
          <path id="Path_1970" data-name="Path 1970" class="cls-29" d="M819.777,268.415l-19.106.06,22.6,22.457a4.892,4.892,0,0,0,1.556-3.6l-.046-13.939a4.757,4.757,0,0,0-.468-2.066A4.957,4.957,0,0,0,819.777,268.415Z" transform="translate(-718.824 -263.452)"/>
        </g>
        <g id="Group_484" data-name="Group 484" transform="translate(4009.422 2718.498)">
          <g id="Group_479" data-name="Group 479" transform="translate(10.629 13.389)">
            <rect id="Rectangle_533" data-name="Rectangle 533" class="cls-28" width="85.329" height="18.829" transform="translate(0.009 1.328)"/>
            <rect id="Rectangle_534" data-name="Rectangle 534" class="cls-30" width="4.278" height="20.156" transform="translate(67.221)"/>
            <rect id="Rectangle_535" data-name="Rectangle 535" class="cls-30" width="47.054" height="9.037" transform="translate(5.972 6.417)"/>
            <rect id="Rectangle_536" data-name="Rectangle 536" class="cls-31" width="85.243" height="9.226" transform="translate(0 10.93)"/>
          </g>
          <g id="Group_480" data-name="Group 480" transform="translate(18.802)">
            <rect id="Rectangle_537" data-name="Rectangle 537" class="cls-9" width="67.536" height="14.717"/>
            <rect id="Rectangle_538" data-name="Rectangle 538" class="cls-21" width="28.642" height="8.763" transform="translate(0 2.804)"/>
            <rect id="Rectangle_539" data-name="Rectangle 539" class="cls-32" width="67.434" height="7.184" transform="translate(0.018)"/>
          </g>
          <g id="Group_483" data-name="Group 483" transform="translate(0 33.545)">
            <g id="Group_481" data-name="Group 481" transform="translate(42.66 3.035)">
              <path id="Path_1971" data-name="Path 1971" class="cls-11" d="M905.29,321.391H857.973V306.834H905.29C902.894,306.834,902.894,321.391,905.29,321.391Z" transform="translate(-850.691 -306.834)"/>
              <path id="Path_1972" data-name="Path 1972" class="cls-11" d="M869.25,314.114a7.281,7.281,0,1,1-7.277-7.28A7.279,7.279,0,0,1,869.25,314.114Z" transform="translate(-854.688 -306.834)"/>
            </g>
            <g id="Group_482" data-name="Group 482">
              <ellipse id="Ellipse_89" data-name="Ellipse 89" class="cls-33" cx="10.514" cy="10.312" rx="10.514" ry="10.312" transform="translate(0 0.002)"/>
              <path id="Path_1973" data-name="Path 1973" class="cls-33" d="M926.934,305.465h-86.75v20.629h86.75v-3.035H879.617a7.278,7.278,0,1,1,0-14.557h47.317Z" transform="translate(-829.675 -305.465)"/>
            </g>
          </g>
        </g>
        <g id="Group_485" data-name="Group 485" transform="translate(3792.671 2703.9)">
          <path id="Path_1974" data-name="Path 1974" class="cls-22" d="M746.749,286.181A18.15,18.15,0,0,0,740.1,310.99c7.357,12.759,17.767,8.454,24.264,19.726l3.649-2.1-.466.255c-3.771-6.657-10.172-12.852-13.85-16.111-.086.182-.144.361-.244.55l-.787-.4c.133-.248.231-.508.341-.749-1.283-1.119-2.121-1.782-2.15-1.8l.814-1.029c.033.016.747.585,1.9,1.576a20.879,20.879,0,0,1,1.246-2.492c.049-.08.109-.18.168-.295.293-.548.738-1.4,1.541-1.339.718.029,1.281.878,1.574,1.339.126.191.244.392.375.625a4.308,4.308,0,0,0,.65.971,3.313,3.313,0,0,0,.253-.57,2.955,2.955,0,0,0,.124-.84,3.079,3.079,0,0,1,.344-1.43,1.013,1.013,0,0,1,1.516-.286c.12.04.246.109.375.166.528.182.7.166,1.035-.073a11.929,11.929,0,0,0,1.8-1.869c-.315-1.631-.468-2.631-.468-2.669l1.314-.184c0,.033.071.523.224,1.363a11.284,11.284,0,0,0,.829-1.507l.8.377a16.652,16.652,0,0,1-1.412,2.359c.858,4.5,3.05,13.978,7.229,21.1l-1.139.676c-3.948-6.732-6.149-15.488-7.167-20.409a9.535,9.535,0,0,1-1.478,1.436,1.659,1.659,0,0,1-1.851.211,3.053,3.053,0,0,1-.472-.208,1.234,1.234,0,0,0-.31-.131c.007.011-.035.033-.071.113a2.383,2.383,0,0,0-.215,1.033,4.438,4.438,0,0,1-.171,1.066,2.025,2.025,0,0,1-.711,1.055.741.741,0,0,1-.31.106c-.649.042-1.082-.7-1.483-1.421-.109-.2-.228-.4-.333-.565-.539-.838-.789-.962-.9-.971-.235,0-.554.587-.725.9-.067.124-.135.237-.189.335a23.388,23.388,0,0,0-1.31,2.627c3.7,3.243,10.452,9.707,14.442,16.7l1.248-.727.494-.262,5.579-3.245c-5.007-8.663-.891-14.721-2.057-22.847a18.14,18.14,0,0,0-27.217-14.945Z" transform="translate(-737.661 -283.747)"/>
          <path id="Path_1975" data-name="Path 1975" class="cls-22" d="M761.254,302.382l-9.8,5.655a4.412,4.412,0,0,0-1.6,5.983l4.349,7.53a4.381,4.381,0,0,0,5.99,1.609l9.8-5.661a4.341,4.341,0,0,0,1.587-5.967l-4.34-7.552A4.4,4.4,0,0,0,761.254,302.382Zm10.387,11.5L756.187,322.8l-.869-1.505,15.455-8.918Zm-1.826-3.172-15.459,8.918-.878-1.53,15.453-8.909Zm-1.842-3.176-15.439,8.913-.878-1.5,15.45-8.922Zm-1.838-3.183-15.446,8.922-.865-1.521,15.446-8.907Z" transform="translate(-723.525 -261.781)"/>
        </g>
        <g id="Group_486" data-name="Group 486" transform="translate(3984.87 2654.429)">
          <path id="Path_1976" data-name="Path 1976" class="cls-22" d="M857.618,276.425c-2.6-2.6-6.577-3.208-10.538-2.042h-.022c-6.049-.02-14.2.749-17.292-11.87-5.755,4.378-2.746,12.62-2.746,12.62s-1.463-.164-2.405-2.4c0,0-2.961,15.291,11.66,16.235,0,0-2.305,7.9-11.234,3.261,1.685,6.739,11.343,11.281,20.274,9.049a19.021,19.021,0,0,0,12.261-9.886.741.741,0,0,0,.046-.1,14.922,14.922,0,0,0,2.6-8.264A9.311,9.311,0,0,0,857.618,276.425Zm-21.4,8.681a10.551,10.551,0,0,1-2.09.213,6.582,6.582,0,0,1-5.309-2.1,11.12,11.12,0,0,1-2.044-5.77l3.72.419-1.29-3.531a11.743,11.743,0,0,1-.242-6.856c3.627,8.663,9.035,9.31,13.345,9.359C841.624,279.047,839.656,284.394,836.218,285.105Zm20.245,5.42-.086.131-.031.084c-.018.033-.035.067-.051.1a17.648,17.648,0,0,1-10.175,8.749c-.853-2.707-.189-6.473,1.776-9.811,2.265-3.837,5.863-6.42,8.94-6.42a4.438,4.438,0,0,1,1.982.437A14,14,0,0,1,856.463,290.525Z" transform="translate(-824.367 -260.11)"/>
          <path id="Path_1977" data-name="Path 1977" class="cls-22" d="M841.25,263.213l5.637.388-4.688,3.664Z" transform="translate(-803.825 -259.258)"/>
          <path id="Path_1978" data-name="Path 1978" class="cls-22" d="M842.793,261.429a8.919,8.919,0,1,0,8.918,8.92A8.917,8.917,0,0,0,842.793,261.429Zm4.8,5.981a1.432,1.432,0,1,1,1.432-1.432A1.432,1.432,0,0,1,847.6,267.41Z" transform="translate(-812.803 -261.429)"/>
        </g>
        <g id="Group_487" data-name="Group 487" transform="translate(4046.155 2807.078)">
          <rect id="Rectangle_540" data-name="Rectangle 540" class="cls-22" width="9.651" height="34.977" transform="translate(0 20.844)"/>
          <path id="Path_1979" data-name="Path 1979" class="cls-22" d="M890.7,360.589c6.557,0,6.479-7.772,0-7.772H880.342c-6.021,0-1.6-5.18-1.6-5.18s4.726-7.091,3.655-13.034c-.428-2.376-1.549-3.669-2.76-4.114a2.817,2.817,0,0,0-1.434-.164c-1.224.184-2.23,1.248-2.587,3.059-.084.481-.512,1.86-.556,1.964-1.47,3.462-5.446,8.29-7.14,10.3-2.057,2.441-2.212,9.144-9.45,9.144v27.432h27.013c7.009,0,6.4-5.83,2.975-5.83,7.889,0,6.475-7.12,1.487-7.12C897.408,369.276,896.7,360.589,890.7,360.589Zm-14.956-25.326.816-3.5a2.676,2.676,0,0,1,3.808.862l-1.607,3.363A4.957,4.957,0,0,0,875.747,335.263Z" transform="translate(-844.156 -330.293)"/>
          <path id="Path_1980" data-name="Path 1980" class="cls-22" d="M861.7,372.74h-5.526V340.259H861.7Zm-4.666-.858h3.808V341.119h-3.808Z" transform="translate(-846.953 -318.167)"/>
        </g>
      </g>
    </g>
  </g>
</svg>
